<svg width="25" height="22" viewBox="0 0 25 22" fill="none" xmlns="http://www.w3.org/2000/svg">
<path fill-rule="evenodd" clip-rule="evenodd" d="M11.9463 6.35573L11.9996 7.23416L11.1117 7.1266C7.87989 6.71427 5.05645 5.31594 2.6592 2.96747L1.4872 1.8022L1.18533 2.66271C0.54606 4.58093 0.954481 6.60671 2.28629 7.96918C2.99659 8.72212 2.83677 8.82969 1.61151 8.38151C1.18533 8.23809 0.812421 8.13052 0.776906 8.18431C0.652604 8.3098 1.07878 9.94118 1.41617 10.5866C1.87787 11.4829 2.81901 12.3614 3.84894 12.8812L4.71906 13.2936L3.68913 13.3115C2.69471 13.3115 2.6592 13.3294 2.76574 13.7059C3.12089 14.8712 4.52373 16.1082 6.08638 16.646L7.18735 17.0224L6.22844 17.5961C4.80785 18.4208 3.13865 18.8869 1.46945 18.9227C0.670362 18.9407 0.0133362 19.0124 0.0133362 19.0662C0.0133362 19.2454 2.17974 20.2494 3.44052 20.6438C7.22286 21.809 11.7155 21.3071 15.0894 19.3171C17.4867 17.9009 19.8839 15.0863 21.0026 12.3614C21.6064 10.9093 22.2101 8.25601 22.2101 6.98318C22.2101 6.15853 22.2634 6.05096 23.2578 5.06496C23.8438 4.49129 24.3943 3.86384 24.5009 3.68456C24.6784 3.34395 24.6607 3.34395 23.755 3.64871C22.2457 4.18653 22.0326 4.11482 22.7784 3.30809C23.3289 2.73442 23.9859 1.69464 23.9859 1.38987C23.9859 1.33609 23.7195 1.42573 23.4177 1.58707C23.098 1.76635 22.3877 2.03525 21.855 2.1966L20.8961 2.50136L20.026 1.90976C19.5465 1.58707 18.8717 1.22853 18.5166 1.12096C17.611 0.869983 16.2259 0.905837 15.409 1.19267C13.1894 1.9994 11.7865 4.07896 11.9463 6.35573Z" fill="#F8F8F8"/>
</svg>
