<svg width="28" height="28" viewBox="0 0 28 28" fill="none" xmlns="http://www.w3.org/2000/svg">
<path fill-rule="evenodd" clip-rule="evenodd" d="M27.0862 14.0891C27.0862 15.0048 26.993 15.9192 26.8099 16.8105C26.6314 17.6806 26.3669 18.5349 26.0205 19.3515C25.682 20.1537 25.2622 20.9268 24.7716 21.6477C24.2883 22.364 23.7316 23.0361 23.1201 23.6487C22.5072 24.2587 21.8328 24.8139 21.1168 25.2992C20.3935 25.7864 19.6194 26.2056 18.8167 26.5457C17.9989 26.8903 17.1426 27.1543 16.2732 27.3326C15.3807 27.5162 14.463 27.6099 13.5461 27.6099C12.6284 27.6099 11.7107 27.5162 10.8195 27.3326C9.9488 27.1543 9.09261 26.8903 8.27542 26.5457C7.47281 26.2056 6.69791 25.7864 5.97463 25.2992C5.25862 24.814 4.58425 24.2587 3.97269 23.6487C3.36049 23.0361 2.80377 22.364 2.31982 21.6477C1.83189 20.9268 1.41138 20.1537 1.07157 19.3515C0.725089 18.5349 0.460007 17.6806 0.280831 16.8105C0.0996932 15.9192 0.0071106 15.0048 0.0071106 14.0891C0.0071106 13.1728 0.0996402 12.2565 0.280884 11.3671C0.46006 10.497 0.725142 9.64138 1.07162 8.82606C1.41143 8.02328 1.83195 7.24956 2.31987 6.52859C2.80383 5.81165 3.36054 5.14085 3.97274 4.52753C4.58431 3.91748 5.25867 3.36363 5.97469 2.87905C6.69797 2.38982 7.47286 1.97065 8.27547 1.62996C9.09266 1.28461 9.9488 1.01991 10.8196 0.843007C11.7108 0.660808 12.6284 0.568359 13.5461 0.568359C14.4631 0.568359 15.3808 0.660808 16.2733 0.843007C17.1427 1.01997 17.9989 1.28467 18.8167 1.62996C19.6194 1.9706 20.3936 2.38982 21.1168 2.87905C21.8329 3.36363 22.5073 3.91748 23.1201 4.52753C23.7317 5.14085 24.2884 5.81165 24.7717 6.52859C25.2622 7.24956 25.682 8.02334 26.0205 8.82606C26.3669 9.64138 26.6314 10.497 26.8099 11.3671C26.993 12.2565 27.0862 13.1728 27.0862 14.0891ZM8.61253 3.64551C5.38809 5.16597 2.98153 8.13286 2.23112 11.7085C2.53594 11.7111 7.35437 11.7719 12.906 10.2989C10.9047 6.7484 8.76659 3.85089 8.61253 3.64551ZM13.864 12.0769C7.91039 13.8567 2.19741 13.7286 1.99247 13.7208C1.98914 13.8449 1.9832 13.965 1.9832 14.0891C1.9832 17.0553 3.10384 19.7595 4.94579 21.8041C4.94181 21.7982 8.1061 16.1925 14.346 14.1776C14.4967 14.1274 14.6501 14.0825 14.8022 14.039C14.512 13.3828 14.1952 12.7252 13.864 12.0769ZM21.1823 5.42343C19.1465 3.63097 16.4736 2.5437 13.546 2.5437C12.6065 2.5437 11.6948 2.65726 10.8214 2.86719C10.9946 3.09961 13.1665 5.9767 15.144 9.60242C19.5069 7.96914 21.1538 5.46566 21.1823 5.42343ZM15.5903 15.9522C15.5646 15.9607 15.5388 15.9681 15.5136 15.9773C8.6914 18.3522 6.4635 23.1383 6.4394 23.1905C8.40238 24.7149 10.8645 25.6346 13.5461 25.6346C15.1473 25.6346 16.6726 25.309 18.0603 24.7196C17.8891 23.7108 17.2174 20.1748 15.5903 15.9522ZM20.0074 23.6646C22.6037 21.9151 24.4476 19.137 24.962 15.9191C24.724 15.8425 21.489 14.8199 17.7568 15.4174C19.2735 19.5793 19.8897 22.9687 20.0074 23.6646ZM16.034 11.3229C16.3023 11.8735 16.5622 12.4339 16.8022 12.9972C16.8875 13.1992 16.9708 13.3973 17.0521 13.5953C21.0243 13.0962 24.9376 13.9359 25.1049 13.9702C25.0785 11.2331 24.0979 8.72106 22.4755 6.75438C22.4537 6.78534 20.5992 9.46112 16.034 11.3229Z" fill="#F8F8F8"/>
</svg>
