<svg width="28" height="28" viewBox="0 0 28 28" fill="none" xmlns="http://www.w3.org/2000/svg">
<path fill-rule="evenodd" clip-rule="evenodd" d="M14.388 0.568359C10.7108 0.568359 10.2493 0.584438 8.80509 0.650162C7.36368 0.716168 6.3798 0.944368 5.5189 1.27919C4.62838 1.62502 3.87298 2.08763 3.1204 2.84049C2.36725 3.59307 1.90464 4.34847 1.55769 5.23871C1.22202 6.09989 0.993535 7.08406 0.928658 8.52491C0.864062 9.96914 0.847137 10.4309 0.847137 14.1081C0.847137 17.7852 0.863498 18.2453 0.92894 19.6895C0.995228 21.1309 1.22343 22.1148 1.55797 22.9757C1.90408 23.8662 2.36669 24.6216 3.11955 25.3742C3.87185 26.1274 4.62725 26.5911 5.5172 26.9369C6.37867 27.2717 7.36283 27.4999 8.80397 27.5659C10.2482 27.6317 10.7094 27.6477 14.3863 27.6477C18.0637 27.6477 18.5238 27.6317 19.968 27.5659C21.4094 27.4999 22.3944 27.2717 23.2559 26.9369C24.1461 26.5911 24.9004 26.1274 25.6527 25.3742C26.4059 24.6216 26.8685 23.8662 27.2154 22.976C27.5483 22.1148 27.7767 21.1306 27.8444 19.6898C27.9093 18.2456 27.9262 17.7852 27.9262 14.1081C27.9262 10.4309 27.9093 9.96942 27.8444 8.52519C27.7767 7.08377 27.5483 6.09989 27.2154 5.23899C26.8685 4.34847 26.4059 3.59307 25.6527 2.84049C24.8996 2.08734 24.1464 1.62474 23.2551 1.27919C22.3919 0.944368 21.4074 0.716168 19.966 0.650162C18.5218 0.584438 18.062 0.568359 14.3837 0.568359H14.388ZM13.1733 3.00829C13.5338 3.00772 13.936 3.00829 14.3879 3.00829C18.003 3.00829 18.4315 3.02126 19.8591 3.08614C21.1792 3.1465 21.8957 3.36709 22.3729 3.55241C23.0048 3.79782 23.4553 4.09118 23.9289 4.56507C24.4028 5.03896 24.6961 5.49028 24.9421 6.12214C25.1274 6.59885 25.3483 7.31532 25.4084 8.63544C25.4732 10.0628 25.4874 10.4915 25.4874 14.1049C25.4874 17.7183 25.4732 18.1471 25.4084 19.5744C25.348 20.8945 25.1274 21.611 24.9421 22.0877C24.6967 22.7195 24.4028 23.1695 23.9289 23.6431C23.455 24.117 23.0051 24.4103 22.3729 24.6557C21.8962 24.8419 21.1792 25.0619 19.8591 25.1223C18.4318 25.1872 18.003 25.2013 14.3879 25.2013C10.7725 25.2013 10.344 25.1872 8.91674 25.1223C7.59662 25.0614 6.88014 24.8408 6.40259 24.6554C5.77073 24.41 5.31941 24.1167 4.84552 23.6428C4.37163 23.1689 4.07827 22.7187 3.8323 22.0866C3.64698 21.6099 3.42611 20.8934 3.36603 19.5733C3.30115 18.146 3.28817 17.7172 3.28817 14.1015C3.28817 10.4859 3.30115 10.0594 3.36603 8.63206C3.42639 7.31194 3.64698 6.59546 3.8323 6.11819C4.07771 5.48633 4.37163 5.03501 4.84552 4.56112C5.31941 4.08723 5.77073 3.79387 6.40259 3.5479C6.87986 3.36173 7.59662 3.14171 8.91674 3.08106C10.1658 3.02465 10.6498 3.00772 13.1733 3.0049V3.00829ZM21.6153 5.25645C20.7183 5.25645 19.9905 5.98336 19.9905 6.88065C19.9905 7.77765 20.7183 8.50541 21.6153 8.50541C22.5123 8.50541 23.2401 7.77765 23.2401 6.88065C23.2401 5.98364 22.5123 5.25645 21.6153 5.25645ZM14.388 7.15482C10.5481 7.15482 7.43479 10.2681 7.43479 14.108C7.43479 17.9479 10.5481 21.0598 14.388 21.0598C18.2279 21.0598 21.3401 17.9479 21.3401 14.108C21.3401 10.2681 18.2279 7.15482 14.388 7.15482ZM14.3879 9.59479C16.8804 9.59479 18.9012 11.6153 18.9012 14.108C18.9012 16.6005 16.8804 18.6213 14.3879 18.6213C11.8952 18.6213 9.8747 16.6005 9.8747 14.108C9.8747 11.6153 11.8952 9.59479 14.3879 9.59479Z" fill="#F8F8F8"/>
</svg>
