<svg width="28" height="21" viewBox="0 0 28 21" fill="none" xmlns="http://www.w3.org/2000/svg">
<path fill-rule="evenodd" clip-rule="evenodd" d="M24.4463 1.3799C25.6115 1.69962 26.5291 2.6417 26.8405 3.83806C27.4064 6.00631 27.4064 10.5304 27.4064 10.5304C27.4064 10.5304 27.4064 15.0543 26.8405 17.2227C26.5291 18.4191 25.6115 19.3611 24.4463 19.681C22.3348 20.2619 13.8669 20.2619 13.8669 20.2619C13.8669 20.2619 5.39894 20.2619 3.28723 19.681C2.12206 19.3611 1.20445 18.4191 0.893039 17.2227C0.327301 15.0543 0.327301 10.5304 0.327301 10.5304C0.327301 10.5304 0.327301 6.00631 0.893039 3.83806C1.20445 2.6417 2.12206 1.69962 3.28723 1.3799C5.39894 0.798828 13.8669 0.798828 13.8669 0.798828C13.8669 0.798828 22.3348 0.798828 24.4463 1.3799ZM11.3282 6.72229V15.1845L18.098 10.9536L11.3282 6.72229Z" fill="#F8F8F8"/>
</svg>
