<svg width="27" height="27" viewBox="0 0 27 27" fill="none" xmlns="http://www.w3.org/2000/svg">
<path fill-rule="evenodd" clip-rule="evenodd" d="M26.2481 0.714787C26.5714 1.03804 26.6809 1.51788 26.5299 1.94936L18.1999 25.7494C18.0387 26.2099 17.6127 26.5254 17.1252 26.5453C16.6377 26.5651 16.1874 26.2854 15.9892 25.8396L11.4151 15.5478L1.12336 10.9737C0.677488 10.7755 0.397762 10.3253 0.417652 9.83774C0.437541 9.35022 0.753015 8.92424 1.21355 8.76305L25.0135 0.433053C25.445 0.282035 25.9249 0.391538 26.2481 0.714787ZM13.736 14.9098L16.945 22.1301L22.5608 6.08501L13.736 14.9098ZM20.8779 4.40209L4.83284 10.0179L12.0531 13.2269L20.8779 4.40209Z" fill="white"/>
</svg>
